<svg width="601" height="532" viewBox="0 0 601 532" fill="none" xmlns="http://www.w3.org/2000/svg">
<path d="M600.039 180.192C598.59 165.551 595.477 151.314 590.239 137.611C581.167 113.843 568.126 92.8566 549.203 75.2612C539.281 66.0357 529.253 57.1308 518.02 49.7159C493.508 33.544 466.821 22.0058 438.571 14.0722C427.777 11.0436 416.974 8.00678 405.807 6.53365C404.524 6.36083 403.232 6.18801 401.94 6.01518C400.167 4.63255 398.036 5.15102 396.044 4.90414C396.011 4.72308 395.894 4.59964 395.714 4.54202C395.539 4.38567 395.377 4.22928 395.203 4.07293C394.445 4.24575 393.622 4.69017 392.931 4.54202C382.465 2.36934 371.875 1.34884 361.222 0.772752C339.196 -0.428808 317.169 -0.420579 295.251 2.18006C274.74 4.60787 254.518 8.39361 234.592 14.245C217.696 19.2076 201.252 25.1414 185.213 32.2356C170.713 38.6467 156.732 46.0947 143.253 54.4726C133.092 60.7848 122.906 67.0314 113.553 74.5206C100.658 83.491 88.9249 93.8524 77.3974 104.494C61.6542 119.036 48.208 135.611 36.2442 153.182C26.2811 167.814 17.8989 183.574 12.1599 200.503C6.69253 216.625 2.08975 232.888 0.714685 250.022C-1.59082 278.851 1.65335 306.907 10.8589 334.289C20.8879 364.12 35.6021 391.33 56.0634 415.384C69.8798 431.624 85.5491 445.768 102.7 458.386C118.839 470.261 136.443 479.693 154.097 488.935C161.516 492.819 169.642 495.584 177.399 498.974C219.919 517.549 264.3 528.538 310.609 531.351C332.074 532.653 353.565 531.943 374.964 529.698C386.771 528.454 398.595 527.122 410.174 524.273C414.257 524.646 417.83 522.226 421.89 522.136C423.396 522.103 423.381 520.621 422.407 519.329C420.613 516.957 418.966 514.465 417.253 512.028C409.299 500.702 401.543 489.233 393.334 478.088C381.84 462.477 370.937 446.454 359.098 431.08C349.578 418.717 341.155 405.51 332.065 392.812C315.612 369.824 299.031 346.93 282.497 324C281.599 322.759 280.957 321.623 281.393 319.886C283.897 309.904 287.594 300.274 290.92 290.604C295.943 276.02 300.472 261.273 305.759 246.78C306.489 244.763 306.459 243.488 303.682 244.253C301.047 244.977 298.314 245.364 295.712 246.163C272.674 253.191 249.314 259.075 226.119 265.535C203.599 271.807 181.038 277.971 158.485 284.119C143.565 288.184 128.588 292.036 113.701 296.184C108.629 297.599 108.423 297.83 107.394 292.834C104.191 277.304 104.298 261.865 108.95 246.574C109.773 243.866 111.017 241.225 110.819 238.27C111.404 238.295 111.338 237.76 111.428 237.357C112.285 237.101 112.655 236.484 112.647 235.612C113.207 234.682 113.849 233.793 114.302 232.814C120.552 219.202 130.63 208.7 142.322 199.845C151.272 193.064 161.754 188.883 172.607 186.035C188.004 181.986 203.904 180.785 219.557 178.126C229.108 176.505 238.783 175.616 248.227 173.328C251.183 173.312 254.09 172.9 256.906 171.987C257.647 172.39 258.297 172.3 258.874 171.674C259.623 171.888 260.348 171.855 261.006 171.394C264.662 171.493 268.227 171.024 271.669 169.757C273.917 169.74 276.14 169.625 278.24 168.711C278.759 168.966 279.195 168.859 279.549 168.415C280.084 168.473 280.636 168.637 281.155 168.563C295.622 166.432 310.098 164.325 324.555 162.103C350.206 158.161 375.845 154.12 401.495 150.161C425.809 146.408 450.131 142.73 474.454 139.001C483.775 137.57 493.106 136.187 502.4 134.607C505.877 134.014 507.112 135.125 506.863 138.615C506.601 142.294 506.796 145.997 506.105 149.651C501.156 175.748 484.565 191.459 460.3 199.516C442.64 205.384 424.682 210.445 406.664 215.111C375.878 223.078 360.315 252.154 365.207 278.399C366.186 283.641 367.431 288.834 368.608 294.044C373.621 316.192 378.654 338.337 383.685 360.483C383.661 360.886 383.552 361.315 383.633 361.694C388.441 383.314 393.358 404.9 397.994 426.553C398.737 430.01 399.912 430.653 403.214 429.934C436.612 422.709 467.644 410.019 495.936 390.72C513.477 378.754 528.946 364.525 542.559 348.328C557.659 330.363 570.241 310.751 580.046 289.369C590.092 267.453 597.1 244.673 599.816 220.716C601.34 207.268 601.373 193.746 600.03 180.217L600.039 180.192ZM384.243 360.492C384.598 360.492 384.92 360.435 385.214 360.336C384.92 360.444 384.598 360.492 384.243 360.492Z" fill="url(#paint0_linear_1072_4)"/>
<defs>
<linearGradient id="paint0_linear_1072_4" x1="589.332" y1="513.317" x2="74.0216" y2="-33.4756" gradientUnits="userSpaceOnUse">
<stop stop-color="#3B82F6"/>
<stop offset="1" stop-color="#06B6D4"/>
</linearGradient>
</defs>
</svg>
