<svg width="1283" height="316" viewBox="0 0 1283 316" fill="none" xmlns="http://www.w3.org/2000/svg">
<path d="M175.412 1.29492C188.433 -0.249805 201.52 -0.254707 214.606 0.458984C220.935 0.801173 227.227 1.40771 233.445 2.69824C233.856 2.78622 234.345 2.52161 234.795 2.41895C234.898 2.51182 234.995 2.60537 235.099 2.69824C235.206 2.73249 235.275 2.8056 235.295 2.91309C236.478 3.05973 237.744 2.75198 238.798 3.57324C239.565 3.67589 240.333 3.77821 241.096 3.88086C247.73 4.75588 254.148 6.55949 260.56 8.3584C277.344 13.0708 293.2 19.9244 307.763 29.5303C314.436 33.9346 320.394 39.2243 326.289 44.7041C337.531 55.1554 345.279 67.6208 350.669 81.7383C353.781 89.8775 355.631 98.3348 356.491 107.031L356.485 107.046C357.283 115.082 357.263 123.114 356.358 131.102C354.744 145.332 350.581 158.863 344.613 171.881C338.788 184.581 331.313 196.231 322.342 206.901C314.254 216.522 305.063 224.974 294.642 232.081C277.834 243.545 259.396 251.082 239.555 255.374C237.593 255.801 236.894 255.419 236.453 253.366C233.698 240.505 230.778 227.683 227.922 214.841C227.874 214.616 227.938 214.36 227.952 214.121C224.963 200.967 221.973 187.813 218.995 174.657C218.295 171.563 217.556 168.478 216.974 165.364C214.067 149.775 223.314 132.504 241.604 127.772C252.309 125.001 262.978 121.995 273.471 118.51C287.887 113.724 297.743 104.392 300.683 88.8906C301.094 86.7202 300.978 84.5202 301.134 82.335C301.282 80.2624 300.548 79.602 298.482 79.9541C292.96 80.8926 287.417 81.7139 281.879 82.5645C267.429 84.7789 252.978 86.9642 238.533 89.1934C223.294 91.5448 208.061 93.9447 192.822 96.2861C184.233 97.606 175.633 98.8579 167.038 100.124C166.73 100.168 166.402 100.07 166.084 100.036C165.874 100.3 165.614 100.363 165.306 100.212C164.058 100.754 162.738 100.823 161.402 100.833C159.357 101.586 157.239 101.864 155.067 101.806C154.676 102.079 154.245 102.099 153.8 101.972C153.457 102.343 153.071 102.397 152.631 102.157C150.958 102.7 149.231 102.944 147.474 102.954C141.864 104.313 136.116 104.842 130.441 105.805C121.142 107.384 111.695 108.097 102.548 110.502C96.1001 112.193 89.8731 114.677 84.5555 118.705C77.6091 123.965 71.621 130.203 67.9081 138.288C67.6389 138.87 67.2572 139.398 66.9247 139.95C66.9294 140.468 66.7095 140.835 66.201 140.986C66.1472 141.226 66.1859 141.543 65.8387 141.528C65.9562 143.283 65.2176 144.853 64.7284 146.461C61.9646 155.543 61.9007 164.714 63.8036 173.938C64.415 176.906 64.5375 176.77 67.5507 175.929C76.3953 173.465 85.294 171.177 94.1581 168.762C107.557 165.11 120.96 161.449 134.34 157.724C148.12 153.886 161.999 150.391 175.686 146.217C177.232 145.743 178.856 145.513 180.422 145.083C182.071 144.629 182.089 145.386 181.655 146.583C178.514 155.192 175.824 163.952 172.84 172.614C170.863 178.358 168.667 184.078 167.18 190.007C166.92 191.039 167.302 191.714 167.835 192.451C177.658 206.071 187.509 219.67 197.284 233.324C202.685 240.867 207.689 248.712 213.345 256.055C220.379 265.186 226.856 274.704 233.684 283.977C238.562 290.596 243.17 297.41 247.895 304.137C248.913 305.585 249.891 307.065 250.957 308.474C251.535 309.241 251.545 310.121 250.65 310.141C248.238 310.194 246.116 311.632 243.689 311.41C236.811 313.103 229.785 313.894 222.77 314.633C210.057 315.966 197.289 316.387 184.537 315.614C157.024 313.943 130.656 307.416 105.394 296.383C100.786 294.369 95.9581 292.726 91.5507 290.42C81.0624 284.93 70.6034 279.328 61.0155 272.274C50.8257 264.78 41.516 256.377 33.3075 246.731C21.1513 232.444 12.4093 216.282 6.45105 198.562C0.981938 182.298 -0.94501 165.634 0.424683 148.51C1.24163 138.332 3.97627 128.672 7.22449 119.096C10.6341 109.04 15.6139 99.6788 21.5331 90.9873C28.6409 80.5506 36.6291 70.7052 45.9823 62.0674C52.8309 55.7467 59.802 49.5919 67.4628 44.2637C73.0199 39.8153 79.0717 36.1048 85.1083 32.3555C93.1162 27.3792 101.422 22.9555 110.037 19.1475C119.566 14.9336 129.336 11.4086 139.374 8.46094C151.212 4.98535 163.226 2.737 175.412 1.29492ZM560.877 128.899C572.54 128.899 581.466 131.816 587.656 137.647C593.844 143.36 596.999 151.216 597.119 161.214L597.298 223.164H583.729L583.641 208.123C580.669 212.417 576.95 215.824 572.481 218.344C565.935 221.914 558.199 223.699 549.272 223.699C542.845 223.699 537.192 222.449 532.312 219.95C527.551 217.451 523.86 214.059 521.243 209.774C518.624 205.49 517.315 200.669 517.315 195.313C517.315 187.221 520.409 180.793 526.599 176.031C532.786 171.271 541.417 168.831 552.486 168.712H583.409L583.372 162.463C583.372 155.322 581.229 149.787 576.944 145.859C572.777 141.932 566.529 139.968 558.199 139.968C552.961 139.968 547.903 140.921 543.023 142.825C538.143 144.729 533.264 147.407 528.385 150.858L522.493 141.754C526.538 139.017 530.466 136.695 534.276 134.791C538.084 132.887 542.131 131.458 546.416 130.506C550.701 129.435 555.521 128.899 560.877 128.899ZM506.671 110.689H465.788V223.164H451.505V110.689H410.8V98.1924H506.671V110.689ZM643.207 223.164H629.281V90.6934H643.207V223.164ZM692.721 179.025L741.102 129.257H757.527L722.259 165.665L761.276 223.164H744.673L712.797 175.433L692.721 196.158V223.164H678.795V90.6934H692.721V179.025ZM829.34 189.064L860.761 98.0137H894.324L845.228 223.164H811.486L762.926 98.0137H798.097L829.34 189.064ZM1004.91 123.722H938.854V147.646H998.483V173.175H938.854V197.455H1006.7V223.164H906.182V98.0137H1004.91V123.722ZM1082.89 98.0137C1099.56 98.0137 1112.41 101.882 1121.46 109.618C1130.5 117.236 1135.03 128.007 1135.03 141.933C1135.03 156.572 1130.5 167.998 1121.46 176.21C1118.85 178.547 1115.92 180.545 1112.67 182.207L1138.78 223.164H1101.82L1083.48 188.346C1083.29 188.347 1083.09 188.351 1082.89 188.351H1059.33V223.164H1026.66V98.0137H1082.89ZM1282.61 223.164H1247.79L1239.19 200.669H1185.15L1176.38 223.164H1142.82L1196.55 98.0137H1230.12L1282.61 223.164ZM228.86 214.034C228.685 214.093 228.495 214.127 228.284 214.127C228.494 214.127 228.685 214.098 228.86 214.034ZM554.271 179.066C546.416 179.066 540.463 180.375 536.418 182.994C532.371 185.613 530.349 189.6 530.349 194.956C530.349 200.312 532.252 204.656 536.061 207.989C539.989 211.202 545.284 212.81 551.95 212.81C557.424 212.81 562.364 211.916 566.768 210.131C571.171 208.346 574.803 205.787 577.659 202.454C580.469 199.305 582.428 195.521 583.54 191.098L583.47 179.066H554.271ZM1194.76 176.031H1229.78L1212.44 130.685L1194.76 176.031ZM1059.33 162.642H1082.89C1089.68 162.642 1094.86 160.975 1098.43 157.643C1102.12 154.31 1103.96 149.371 1103.96 142.825C1103.96 136.517 1102.12 131.756 1098.43 128.542C1094.86 125.328 1089.68 123.722 1082.89 123.722H1059.33V162.642Z" fill="url(#paint0_linear_1074_18)"/>
<defs>
<linearGradient id="paint0_linear_1074_18" x1="350.13" y1="304.903" x2="44.0472" y2="-19.9502" gradientUnits="userSpaceOnUse">
<stop stop-color="#3B82F6"/>
<stop offset="1" stop-color="#06B6D4"/>
</linearGradient>
</defs>
</svg>
